<svg xmlns="http://www.w3.org/2000/svg" width="270" height="70" fill="none"><path d="M101.595 10.317L265.642.775 270 59.373 105.519 69.487l-3.924-59.17z" fill="#FEC830"/><path d="M3.565 66.183C2.985 52.373 0 7.585 0 7.585l87.26-5.18 22.086 28.581-18.502 30.21-87.28 4.987z" fill="#000"/><path d="M21.058 36.195c-.138-1.867.11-3.742.73-5.51a13.411 13.411 0 012.719-4.602 14.102 14.102 0 014.418-3.236c1.79-.85 3.73-1.348 5.712-1.468 2.277-.151 4.312.047 6.107.595a16.366 16.366 0 015.078 2.612l-4.028 5.5a11.483 11.483 0 00-3.17-1.658 9.262 9.262 0 00-3.498-.38 6.526 6.526 0 00-2.65.708 6.461 6.461 0 00-2.116 1.73c-1.233 1.497-1.78 3.269-1.64 5.315.148 2.18.957 3.932 2.428 5.257 1.47 1.325 3.272 1.916 5.404 1.772 1.741-.118 3.157-.6 4.247-1.445l-.229-3.353-5.36.36-.365-5.35 12.416-.83.823 12.061c-3.19 2.953-6.991 4.575-11.403 4.867-2.772.187-5.314-.235-7.627-1.265a13.188 13.188 0 01-5.595-4.605c-1.418-2.042-2.218-4.4-2.4-7.075zm33.079-2.172a13.364 13.364 0 01.75-5.47 13.816 13.816 0 012.737-4.629 14.253 14.253 0 014.426-3.273 15.755 15.755 0 0111.53-.78 14.114 14.114 0 014.796 2.637 13.583 13.583 0 013.296 4.217 13.686 13.686 0 011.468 5.359 13.43 13.43 0 01-.749 5.471 13.754 13.754 0 01-2.727 4.633 14.185 14.185 0 01-4.415 3.267 15.148 15.148 0 01-5.685 1.483c-2.72.183-5.234-.27-7.54-1.355a13.577 13.577 0 01-7.886-11.56zm7.656-.512c.134 1.977.9 3.63 2.3 4.96s3.098 1.929 5.093 1.795c2.02-.134 3.62-.944 4.804-2.428 1.184-1.485 1.707-3.234 1.57-5.247-.135-1.977-.902-3.63-2.3-4.96-1.4-1.33-3.112-1.928-5.136-1.794-1.994.134-3.583.943-4.766 2.428-1.184 1.484-1.705 3.233-1.565 5.246zm63.529 19.099l-1.823-26.7 7.469-.5 1.829 26.701-7.475.499zm9.936-20.96l-.443-6.5 23.664-1.581.444 6.499-8.105.539 1.379 20.207-7.468.499-1.379-20.208-8.092.546zm23.163 8.4a11.507 11.507 0 01.494-4.279 10.455 10.455 0 011.917-3.58c.877-1.045 1.96-1.9 3.184-2.514a10.64 10.64 0 014.183-1.131c1.743-.117 3.32.08 4.729.592a8.631 8.631 0 013.479 2.26 11.23 11.23 0 012.154 3.458c.538 1.375.857 2.824.944 4.296.046.658.067 1.156.065 1.492l-13.958.933c.366 1.11.962 1.935 1.789 2.473.828.537 1.817.767 2.967.69 1.622-.113 3.115-.933 4.478-2.46l4.273 3.075c-2.031 2.916-4.959 4.502-8.784 4.757-2.17.146-4.129-.172-5.88-.953a9.755 9.755 0 01-4.217-3.534c-1.066-1.58-1.672-3.437-1.817-5.574zm6.826-2.176l7.241-.484c-.217-1.146-.668-2.032-1.352-2.658-.684-.626-1.522-.906-2.514-.841a3.177 3.177 0 00-2.311 1.173c-.599.718-.954 1.655-1.064 2.81zm16.867.594c-.106-1.445.06-2.897.492-4.281a10.495 10.495 0 011.917-3.58c.877-1.044 1.96-1.9 3.183-2.515a10.62 10.62 0 014.184-1.13c1.744-.116 3.32.08 4.729.591a8.63 8.63 0 013.481 2.257 11.195 11.195 0 012.153 3.457c.539 1.377.857 2.828.945 4.302.045.658.066 1.155.064 1.492l-13.957.934c.365 1.11.962 1.934 1.789 2.471.827.538 1.816.768 2.967.691 1.63-.11 3.123-.93 4.481-2.461l4.272 3.075c-2.032 2.916-4.96 4.501-8.784 4.757-2.17.146-4.13-.172-5.879-.953a9.76 9.76 0 01-4.218-3.535c-1.067-1.579-1.673-3.436-1.819-5.572zm6.825-2.178l7.242-.485c-.217-1.145-.668-2.03-1.354-2.657-.685-.627-1.523-.908-2.514-.842a3.17 3.17 0 00-2.309 1.175c-.601.72-.956 1.656-1.065 2.809zm18.417 10.836L205.95 26.49l7.317-.49.199 2.923c1.632-2.379 3.634-3.648 6.007-3.806 2.207-.149 3.987.412 5.34 1.681 1.353 1.27 2.111 3.084 2.272 5.442l.92 13.503-7.317.488-.767-11.145c-.075-1.103-.401-1.937-.977-2.5-.576-.565-1.31-.818-2.202-.76-.919.062-1.641.415-2.165 1.059-.524.644-.749 1.51-.676 2.602l.76 11.145-7.305.493zm23.039-4.232l2.446-4.572c2.513 1.372 4.955 1.978 7.325 1.82 1.229-.085 1.817-.506 1.765-1.266-.024-.361-.296-.644-.813-.846-.516-.203-1.406-.42-2.652-.65a36.978 36.978 0 01-2.418-.53 12.95 12.95 0 01-2.053-.735 6.511 6.511 0 01-1.707-1.07 5.007 5.007 0 01-1.115-1.524 5.625 5.625 0 01-.542-2.128c-.15-2.185.505-3.94 1.965-5.262 1.459-1.323 3.431-2.067 5.914-2.232a16.328 16.328 0 014.601.35c1.461.308 2.866.833 4.169 1.557l-2.188 4.765a18.546 18.546 0 00-3.365-1.13c-1.128-.258-2.105-.359-2.931-.303-.552.036-.966.154-1.242.355a.861.861 0 00-.302.342.86.86 0 00-.082.447c.025.363.293.645.804.846.511.201 1.413.441 2.705.72.945.19 1.751.38 2.419.566.703.2 1.39.455 2.054.76a6.518 6.518 0 011.708 1.067c.461.427.838.935 1.113 1.498.317.646.5 1.348.538 2.066.153 2.254-.493 4.036-1.94 5.347-1.447 1.311-3.475 2.054-6.085 2.229-3.726.247-7.089-.582-10.091-2.487z" fill="#fff"/></svg>